<mxfile host="app.diagrams.net" modified="2023-02-20T07:04:26.694Z" agent="5.0 (Windows NT 10.0; Win64; x64) AppleWebKit/537.36 (KHTML, like Gecko) Chrome/109.0.0.0 Safari/537.36" etag="f4MR_hhvdr7TIKLHkhPz" version="20.8.20" type="github">
  <diagram name="第 1 页" id="KuIBcvNNw8q07dgNn5E1">
    <mxGraphModel dx="1562" dy="1696" grid="1" gridSize="10" guides="1" tooltips="1" connect="1" arrows="1" fold="1" page="1" pageScale="1" pageWidth="1169" pageHeight="827" math="0" shadow="0">
      <root>
        <mxCell id="0" />
        <mxCell id="1" parent="0" />
        <mxCell id="9qHeVWCC-0w_D9PMmoh6-1" value="userSlice" style="swimlane;fontStyle=0;childLayout=stackLayout;horizontal=1;startSize=26;horizontalStack=0;resizeParent=1;resizeParentMax=0;resizeLast=0;collapsible=1;marginBottom=0;align=center;fontSize=14;" vertex="1" parent="1">
          <mxGeometry x="270" y="90" width="160" height="116" as="geometry" />
        </mxCell>
        <mxCell id="9qHeVWCC-0w_D9PMmoh6-2" value="name: user" style="text;strokeColor=none;fillColor=none;spacingLeft=4;spacingRight=4;overflow=hidden;rotatable=0;points=[[0,0.5],[1,0.5]];portConstraint=eastwest;fontSize=12;" vertex="1" parent="9qHeVWCC-0w_D9PMmoh6-1">
          <mxGeometry y="26" width="160" height="30" as="geometry" />
        </mxCell>
        <mxCell id="9qHeVWCC-0w_D9PMmoh6-3" value="initialState:" style="text;strokeColor=none;fillColor=none;spacingLeft=4;spacingRight=4;overflow=hidden;rotatable=0;points=[[0,0.5],[1,0.5]];portConstraint=eastwest;fontSize=12;" vertex="1" parent="9qHeVWCC-0w_D9PMmoh6-1">
          <mxGeometry y="56" width="160" height="30" as="geometry" />
        </mxCell>
        <mxCell id="9qHeVWCC-0w_D9PMmoh6-4" value="reducers" style="text;strokeColor=none;fillColor=none;spacingLeft=4;spacingRight=4;overflow=hidden;rotatable=0;points=[[0,0.5],[1,0.5]];portConstraint=eastwest;fontSize=12;" vertex="1" parent="9qHeVWCC-0w_D9PMmoh6-1">
          <mxGeometry y="86" width="160" height="30" as="geometry" />
        </mxCell>
        <mxCell id="9qHeVWCC-0w_D9PMmoh6-5" value="initialState" style="swimlane;fontStyle=0;childLayout=stackLayout;horizontal=1;startSize=26;horizontalStack=0;resizeParent=1;resizeParentMax=0;resizeLast=0;collapsible=1;marginBottom=0;align=center;fontSize=14;" vertex="1" parent="1">
          <mxGeometry x="620" y="-110" width="160" height="146" as="geometry" />
        </mxCell>
        <mxCell id="9qHeVWCC-0w_D9PMmoh6-6" value="loggedIn: false" style="text;strokeColor=none;fillColor=none;spacingLeft=4;spacingRight=4;overflow=hidden;rotatable=0;points=[[0,0.5],[1,0.5]];portConstraint=eastwest;fontSize=12;" vertex="1" parent="9qHeVWCC-0w_D9PMmoh6-5">
          <mxGeometry y="26" width="160" height="30" as="geometry" />
        </mxCell>
        <mxCell id="9qHeVWCC-0w_D9PMmoh6-8" value="userName: &quot;&#39;&#xa;" style="text;strokeColor=none;fillColor=none;spacingLeft=4;spacingRight=4;overflow=hidden;rotatable=0;points=[[0,0.5],[1,0.5]];portConstraint=eastwest;fontSize=12;" vertex="1" parent="9qHeVWCC-0w_D9PMmoh6-5">
          <mxGeometry y="56" width="160" height="30" as="geometry" />
        </mxCell>
        <mxCell id="9qHeVWCC-0w_D9PMmoh6-9" value="Likes: []" style="text;strokeColor=none;fillColor=none;spacingLeft=4;spacingRight=4;overflow=hidden;rotatable=0;points=[[0,0.5],[1,0.5]];portConstraint=eastwest;fontSize=12;" vertex="1" parent="9qHeVWCC-0w_D9PMmoh6-5">
          <mxGeometry y="86" width="160" height="30" as="geometry" />
        </mxCell>
        <mxCell id="9qHeVWCC-0w_D9PMmoh6-10" value="Collections: []" style="text;strokeColor=none;fillColor=none;spacingLeft=4;spacingRight=4;overflow=hidden;rotatable=0;points=[[0,0.5],[1,0.5]];portConstraint=eastwest;fontSize=12;" vertex="1" parent="9qHeVWCC-0w_D9PMmoh6-5">
          <mxGeometry y="116" width="160" height="30" as="geometry" />
        </mxCell>
        <mxCell id="9qHeVWCC-0w_D9PMmoh6-12" style="edgeStyle=orthogonalEdgeStyle;rounded=0;orthogonalLoop=1;jettySize=auto;html=1;entryX=0;entryY=0.137;entryDx=0;entryDy=0;entryPerimeter=0;" edge="1" parent="1" source="9qHeVWCC-0w_D9PMmoh6-3" target="9qHeVWCC-0w_D9PMmoh6-5">
          <mxGeometry relative="1" as="geometry" />
        </mxCell>
        <mxCell id="9qHeVWCC-0w_D9PMmoh6-13" value="reducers" style="swimlane;fontStyle=0;childLayout=stackLayout;horizontal=1;startSize=26;horizontalStack=0;resizeParent=1;resizeParentMax=0;resizeLast=0;collapsible=1;marginBottom=0;align=center;fontSize=14;" vertex="1" parent="1">
          <mxGeometry x="680" y="70" width="160" height="86" as="geometry" />
        </mxCell>
        <mxCell id="9qHeVWCC-0w_D9PMmoh6-14" value="setLoggedIn" style="text;strokeColor=none;fillColor=none;spacingLeft=4;spacingRight=4;overflow=hidden;rotatable=0;points=[[0,0.5],[1,0.5]];portConstraint=eastwest;fontSize=12;" vertex="1" parent="9qHeVWCC-0w_D9PMmoh6-13">
          <mxGeometry y="26" width="160" height="30" as="geometry" />
        </mxCell>
        <mxCell id="9qHeVWCC-0w_D9PMmoh6-15" value="setUserName" style="text;strokeColor=none;fillColor=none;spacingLeft=4;spacingRight=4;overflow=hidden;rotatable=0;points=[[0,0.5],[1,0.5]];portConstraint=eastwest;fontSize=12;" vertex="1" parent="9qHeVWCC-0w_D9PMmoh6-13">
          <mxGeometry y="56" width="160" height="30" as="geometry" />
        </mxCell>
        <mxCell id="9qHeVWCC-0w_D9PMmoh6-18" style="edgeStyle=orthogonalEdgeStyle;rounded=0;orthogonalLoop=1;jettySize=auto;html=1;entryX=0.003;entryY=0.079;entryDx=0;entryDy=0;entryPerimeter=0;" edge="1" parent="1" source="9qHeVWCC-0w_D9PMmoh6-4" target="9qHeVWCC-0w_D9PMmoh6-13">
          <mxGeometry relative="1" as="geometry" />
        </mxCell>
      </root>
    </mxGraphModel>
  </diagram>
</mxfile>
